<svg viewBox="0 0 256 256" xmlns="http://www.w3.org/2000/svg">
  <!-- Outer circle with gradient background -->
  <defs>
    <linearGradient id="bgGradient" x1="0%" y1="0%" x2="100%" y2="100%">
      <stop offset="0%" style="stop-color:#1a1a2e;stop-opacity:1" />
      <stop offset="50%" style="stop-color:#16213e;stop-opacity:1" />
      <stop offset="100%" style="stop-color:#0f3460;stop-opacity:1" />
    </linearGradient>
    
    <linearGradient id="nodeGradient" x1="0%" y1="0%" x2="100%" y2="100%">
      <stop offset="0%" style="stop-color:#e94560;stop-opacity:1" />
      <stop offset="100%" style="stop-color:#f27121;stop-opacity:1" />
    </linearGradient>
    
    <filter id="glow">
      <feGaussianBlur stdDeviation="2" result="coloredBlur"/>
      <feMerge> 
        <feMergeNode in="coloredBlur"/>
        <feMergeNode in="SourceGraphic"/>
      </feMerge>
    </filter>
  </defs>
  
  <!-- Main circle background -->
  <circle cx="128" cy="128" r="120" fill="url(#bgGradient)" stroke="#e94560" stroke-width="2"/>
  
  <!-- Nexus network pattern - representing strategic connections -->
  <!-- Central node (representing Ayanokouji's position) -->
  <circle cx="128" cy="128" r="8" fill="url(#nodeGradient)" filter="url(#glow)"/>
  
  <!-- Strategic connection nodes -->
  <circle cx="128" cy="80" r="4" fill="#e94560" opacity="0.8"/>
  <circle cx="128" cy="176" r="4" fill="#e94560" opacity="0.8"/>
  <circle cx="80" cy="128" r="4" fill="#e94560" opacity="0.8"/>
  <circle cx="176" cy="128" r="4" fill="#e94560" opacity="0.8"/>
  
  <!-- Diagonal nodes for calculated moves -->
  <circle cx="96" cy="96" r="3" fill="#f27121" opacity="0.6"/>
  <circle cx="160" cy="96" r="3" fill="#f27121" opacity="0.6"/>
  <circle cx="96" cy="160" r="3" fill="#f27121" opacity="0.6"/>
  <circle cx="160" cy="160" r="3" fill="#f27121" opacity="0.6"/>
  
  <!-- Connection lines (subtle, representing hidden connections) -->
  <line x1="128" y1="128" x2="128" y2="80" stroke="#e94560" stroke-width="1.5" opacity="0.4"/>
  <line x1="128" y1="128" x2="128" y2="176" stroke="#e94560" stroke-width="1.5" opacity="0.4"/>
  <line x1="128" y1="128" x2="80" y2="128" stroke="#e94560" stroke-width="1.5" opacity="0.4"/>
  <line x1="128" y1="128" x2="176" y2="128" stroke="#e94560" stroke-width="1.5" opacity="0.4"/>
  
  <!-- Subtle diagonal connections -->
  <line x1="128" y1="128" x2="96" y2="96" stroke="#f27121" stroke-width="1" opacity="0.3"/>
  <line x1="128" y1="128" x2="160" y2="96" stroke="#f27121" stroke-width="1" opacity="0.3"/>
  <line x1="128" y1="128" x2="96" y2="160" stroke="#f27121" stroke-width="1" opacity="0.3"/>
  <line x1="128" y1="128" x2="160" y2="160" stroke="#f27121" stroke-width="1" opacity="0.3"/>
  
  <!-- Letter 'N' integrated into the design (subtle, like Ayanokouji's hidden nature) -->
  <path d="M 108 100 L 108 156 M 108 100 L 148 156 M 148 100 L 148 156" 
        stroke="#ffffff" stroke-width="2.5" fill="none" opacity="0.9" stroke-linecap="round"/>
</svg>